:version 1.10
:name ASF
:units
  mass 1
  length 1
  angle deg
:documentation
  ASF file generated by Kaydara
:root
  axis xyz
  order  tx ty tz rx ry rz
  position 0 0 0
  orientation 0 0 0
:bonedata
  begin
    id 1
    name RightUpLegDummy
    direction -0.718183 -0.695806 0.00816078
    length 4.904
    axis 0 0 0 xyz
  end
  begin
    id 2
    name RightUpLeg
    direction -0.0736652 -0.994202 0.0783343
    length 17.4976
    axis -2.72909 -3.00389 -4.00133 xyz
    dof rx ry rz
  end
  begin
    id 3
    name RightLeg
    direction -0.0389037 -0.994596 -0.0962598
    length 16.5821
    axis 3.95836 -18.5909 -4.46993 xyz
    dof rx ry rz
  end
  begin
    id 4
    name RightFoot
    direction -0.311643 -0.412678 0.855906
    length 3.77069
    axis -1.99483 -18.8351 -3.27644 xyz
    dof rx ry rz
  end
  begin
    id 5
    name RightToes
    direction -0.317852 0.0389852 0.947339
    length 3.85082
    axis -2.00228 -18.1713 -3.25211 xyz
    dof rx ry rz
  end
  begin
    id 6
    name SpineDummy
    direction 8.3039e-015 1 4.44677e-016
    length 4.6813
    axis 0 0 0 xyz
  end
  begin
    id 7
    name Spine
    direction -0.000262373 0.999988 0.00493267
    length 10.1015
    axis -0.00246081 0.00062579 0.0150362 xyz
    dof rx ry rz
  end
  begin
    id 8
    name Spine1
    direction 0 0 0
    length 0
    axis -0.00349562 0.000650293 0.0196666 xyz
    dof rx ry rz
  end
  begin
    id 9
    name HEadDummy
    direction -0.000343232 0.999999 0.00123745
    length 3.43865
    axis -0.00349562 0.000650293 0.0196666 xyz
  end
  begin
    id 10
    name HEad
    direction -0.0461221 0.980933 0.188796
    length 5.12695
    axis -0.00351404 -7.04812 0.0199272 xyz
    dof rx ry rz
  end
  begin
    id 11
    name LeftShoulder1Dummy
    direction 0.998904 -0.0399089 -0.0244534
    length 3.5433
    axis -0.00349562 0.000650293 0.0196666 xyz
  end
  begin
    id 12
    name LeftShoulder1
    direction 0.99951 1.64443e-005 0.0312999
    length 4.05031
    axis -0.00349562 0.000650293 0.0196666 xyz
    dof rx ry rz
  end
  begin
    id 13
    name LeftArm
    direction 0.984791 0.0515299 0.165927
    length 12.9126
    axis -64.823 -10.7743 5.20463 xyz
    dof rx ry rz
  end
  begin
    id 14
    name LeftForeArm
    direction 0.984968 0.0534808 0.16425
    length 10.8596
    axis -30.0462 -7.70601 1.87451 xyz
    dof rx ry rz
  end
  begin
    id 15
    name LeftHand
    direction 0.975871 0.0289682 0.216418
    length 6.62295
    axis -20.1348 -6.98077 1.86072 xyz
    dof rx ry rz
  end
  begin
    id 16
    name RightShoulderDummy
    direction -0.998877 -0.0405946 -0.0244307
    length 3.5433
    axis -0.00349562 0.000650293 0.0196666 xyz
  end
  begin
    id 17
    name RightShoulder
    direction -0.998933 -0.0249743 -0.0388558
    length 4.05031
    axis -0.0205316 -4.02113 1.41395 xyz
    dof rx ry rz
  end
  begin
    id 18
    name RightArm
    direction -0.997559 0.068664 0.0127103
    length 12.9638
    axis -67.3882 1.84188 -6.15987 xyz
    dof rx ry rz
  end
  begin
    id 19
    name RightForeArm
    direction -0.991508 0.0912848 0.0926241
    length 10.8312
    axis -22.1975 3.41087 -4.28711 xyz
    dof rx ry rz
  end
  begin
    id 20
    name RightHand
    direction -0.989262 0.0600788 0.133232
    length 6.57864
    axis -12.2911 2.17515 -4.39675 xyz
    dof rx ry rz
  end
  begin
    id 21
    name LeftUpLegDummy
    direction 0.718183 -0.695806 0.00816078
    length 4.904
    axis 0 0 0 xyz
  end
  begin
    id 22
    name LeftUpLeg
    direction 0.0831398 -0.99469 0.0606531
    length 17.4976
    axis -1.71016 2.29552 4.63832 xyz
    dof rx ry rz
  end
  begin
    id 23
    name LeftLeg
    direction 0.0498442 -0.991778 -0.117862
    length 16.5821
    axis 5.13757 15.5727 5.13348 xyz
    dof rx ry rz
  end
  begin
    id 24
    name LeftFoot
    direction 0.269026 -0.433896 0.85986
    length 3.77069
    axis -0.576502 15.6961 4.10267 xyz
    dof rx ry rz
  end
  begin
    id 25
    name LeftToes
    direction 0.277311 0.0251143 0.960452
    length 3.85048
    axis -0.576502 15.6961 4.10267 xyz
    dof rx ry rz
  end
:hierarchy
  begin
    root RightUpLegDummy SpineDummy LeftUpLegDummy
    RightUpLegDummy RightUpLeg
    RightUpLeg RightLeg
    RightLeg RightFoot
    RightFoot RightToes
    SpineDummy Spine
    Spine Spine1
    Spine1 HEadDummy LeftShoulder1Dummy RightShoulderDummy
    HEadDummy HEad
    LeftShoulder1Dummy LeftShoulder1
    LeftShoulder1 LeftArm
    LeftArm LeftForeArm
    LeftForeArm LeftHand
    RightShoulderDummy RightShoulder
    RightShoulder RightArm
    RightArm RightForeArm
    RightForeArm RightHand
    LeftUpLegDummy LeftUpLeg
    LeftUpLeg LeftLeg
    LeftLeg LeftFoot
    LeftFoot LeftToes
  end

:SAMPLES-PER-SECOND 30
:FULLY-SPECIFIED
:DEGREES
63
root  1.4166 34.3305 38.5996 -172.195 0.533508 177.391
RightUpLeg  -8.84518 -10.4217 -1.21386
RightLeg  74.3619 12.7861 -15.5901
RightFoot  1.89803 -0.707808 4.99169
RightToes  3.97569e-016 -3.18055e-015 -2.98177e-016
Spine  18.2961 0.331171 -3.26674
Spine1  -10.2606 0.565641 -14.911
HEad  -8.98544 -4.23067 7.47654
LeftShoulder1  -3.88251e-019 9.70628e-020 -3.87848e-018
LeftArm  30.3561 51.7936 -23.4607
LeftForeArm  -15.3913 -27.7872 4.3282
LeftHand  -0.532797 -5.51365 6.13854
RightShoulder  7.1148 10.2803 33.9682
RightArm  43.7407 -62.4577 -7.74008
RightForeArm  -19.2313 41.2835 -22.7233
RightHand  -4.13975 7.05726 -37.0608
LeftUpLeg  -47.6067 -1.47983 -12.5808
LeftLeg  53.1389 -4.92699 13.7363
LeftFoot  -15.3399 0.0886027 6.76423
LeftToes  5.30048e-011 -3.04284e-011 -3.73785e-011
64
root  1.61967 34.2264 36.6602 -172.158 -2.81592 176.923
RightUpLeg  -23.001 -11.3875 0.853046
RightLeg  94.4919 17.8 -14.4111
RightFoot  -3.93793 -0.192595 2.51321
RightToes  3.97569e-016 -3.18055e-015 -2.98177e-016
Spine  19.5219 -1.09717 -5.51956
Spine1  -8.47517 -0.949166 -13.7495
HEad  -9.67124 -5.25438 8.40512
LeftShoulder1  -3.88251e-019 9.70628e-020 -3.87848e-018
LeftArm  11.5061 39.103 -36.1894
LeftForeArm  -7.72948 -23.9546 0.339892
LeftHand  -0.79254 -6.65778 8.16194
RightShoulder  7.49687 10.4953 35.4567
RightArm  41.2269 -60.5609 -5.36281
RightForeArm  -11.6419 32.2233 -16.9785
RightHand  -3.38392 6.44147 -32.1174
LeftUpLeg  -44.8421 -1.14301 -13.2037
LeftLeg  55.7004 -6.89572 11.8488
LeftFoot  -20.4892 0.37474 6.66474
LeftToes  5.30048e-011 -3.04284e-011 -3.73785e-011
65
root  1.80949 34.41 34.6881 -172.698 -4.85516 177.844
RightUpLeg  -38.4487 -9.99842 3.62207
RightLeg  111.908 19.9725 -9.72488
RightFoot  -7.68326 -0.0298284 1.11085
RightToes  3.97569e-016 -3.18055e-015 -2.98177e-016
Spine  20.7937 -1.84012 -7.03184
Spine1  -6.69405 -1.87127 -11.2644
HEad  -10.2841 -5.43156 9.49325
LeftShoulder1  -3.88251e-019 9.70628e-020 -3.87848e-018
LeftArm  1.86744 25.6544 -45.1185
LeftForeArm  -7.74203 -23.7019 0.604178
LeftHand  -0.936342 -7.82075 8.766
RightShoulder  7.32635 10.4006 34.7906
RightArm  35.1754 -58.8105 -3.97353
RightForeArm  -3.13421 21.9462 -11.0908
RightHand  -2.73456 6.85623 -25.4363
LeftUpLeg  -40.887 0.854097 -11.9337
LeftLeg  56.8828 -8.67279 9.26425
LeftFoot  -23.9129 0.543914 6.41757
LeftToes  5.30048e-011 -3.04284e-011 -3.73785e-011
66
root  2.01945 34.7918 32.5778 -174.173 -7.05006 179.772
RightUpLeg  -53.3577 -7.61093 5.35966
RightLeg  124.347 18.7917 -4.47303
RightFoot  -8.11959 0.0657829 -1.01617
RightToes  3.97569e-016 -3.18055e-015 -2.98177e-016
Spine  22.4713 -2.56044 -9.20092
Spine1  -5.70603 -3.56591 -5.44289
HEad  -10.2588 -4.10483 9.53622
LeftShoulder1  -3.88251e-019 9.70628e-020 -3.87848e-018
LeftArm  2.73679 13.9821 -49.3783
LeftForeArm  -15.49 -28.2974 4.642
LeftHand  -0.859177 -8.43889 7.70263
RightShoulder  6.6857 10.0877 32.1404
RightArm  24.2822 -57.1845 -7.78946
RightForeArm  4.44461 16.0018 -5.91787
RightHand  -2.50897 6.52794 -24.0401
LeftUpLeg  -35.5788 2.92745 -8.90186
LeftLeg  57.0629 -10.321 6.42546
LeftFoot  -26.6748 0.708682 6.53453
LeftToes  5.30048e-011 -3.04284e-011 -3.73785e-011
67
root  2.19845 35.5979 30.1677 -175.989 -9.55258 -177.203
RightUpLeg  -66.4242 -5.80368 6.04267
RightLeg  129.85 18.1455 -3.01634
RightFoot  -9.35045 0.130843 -3.10686
RightToes  3.97569e-016 -3.18055e-015 -2.98177e-016
Spine  24.1886 -3.84018 -10.4494
Spine1  -6.00359 -6.07624 2.62047
HEad  -9.04278 -1.88674 8.63937
LeftShoulder1  -3.88251e-019 9.70628e-020 -3.87848e-018
LeftArm  0.742353 5.2006 -48.824
LeftForeArm  -17.8361 -35.3499 7.19996
LeftHand  -0.841884 -8.37769 7.60031
RightShoulder  5.91852 9.76683 28.6708
RightArm  24.3637 -54.948 -16.0564
RightForeArm  -3.63962 15.4866 -6.45493
RightHand  -2.33821 4.40583 -27.0262
LeftUpLeg  -28.1669 4.59392 -3.94839
LeftLeg  54.1534 -11.8152 3.51025
LeftFoot  -28.8162 0.875884 6.95219
LeftToes  5.30048e-011 -3.04284e-011 -3.73785e-011
68
root  2.26982 37.0984 27.5126 -177.602 -10.5422 -173.739
RightUpLeg  -76.7378 -4.4779 6.70887
RightLeg  127.903 20.6386 -6.35278
RightFoot  -11.2417 0.0933667 -3.44913
RightToes  3.97569e-016 -3.18055e-015 -2.98177e-016
Spine  25.5155 -5.21093 -9.66733
Spine1  -7.34692 -7.94516 9.79744
HEad  -6.25458 0.345896 7.70442
LeftShoulder1  -3.88251e-019 9.70628e-020 -3.87848e-018
LeftArm  -2.04855 0.408376 -45.391
LeftForeArm  -19.4717 -42.9014 9.54361
LeftHand  -1.319 -9.18206 10.9723
RightShoulder  5.09747 9.42108 24.7272
RightArm  29.2688 -51.717 -24.3667
RightForeArm  -14.3363 18.1379 -8.06508
RightHand  -2.23686 3.10544 -29.6088
LeftUpLeg  -18.2671 6.52351 2.00418
LeftLeg  45.9606 -14.1027 0.315252
LeftFoot  -26.7168 0.643474 6.03332
LeftToes  5.30048e-011 -3.04284e-011 -3.73785e-011
